<?xml version="1.0" standalone="no"?>
<!DOCTYPE svg PUBLIC "-//W3C//DTD SVG 20010904//EN"
 "http://www.w3.org/TR/2001/REC-SVG-20010904/DTD/svg10.dtd">
<svg version="1.0" xmlns="http://www.w3.org/2000/svg"
 width="773.000000pt" height="773.000000pt" viewBox="0 0 773.000000 773.000000"
 preserveAspectRatio="xMidYMid meet">

<g transform="translate(0.000000,773.000000) scale(0.100000,-0.100000)"
fill="#000000" stroke="none">
<path d="M3660 7723 c-275 -18 -501 -52 -729 -108 -1380 -339 -2477 -1436
-2816 -2816 -279 -1135 -36 -2330 661 -3254 233 -310 540 -608 854 -831 306
-217 675 -403 1030 -518 592 -194 1245 -241 1872 -135 767 130 1500 512 2063
1074 564 565 942 1291 1075 2068 72 421 72 901 0 1324 -162 955 -702 1837
-1485 2427 -598 451 -1305 713 -2065 766 -134 9 -353 11 -460 3z m445 -83
c701 -50 1355 -278 1914 -667 343 -240 690 -583 930 -921 932 -1315 927 -3075
-12 -4386 -382 -534 -923 -979 -1508 -1242 -1237 -555 -2654 -420 -3751 357
-338 240 -681 587 -921 930 -785 1128 -892 2609 -277 3839 190 381 404 676
714 986 310 310 605 524 986 714 464 232 931 355 1490 393 107 8 305 6 435 -3z"/>
<path d="M3876 7380 c-4 -89 -5 -164 -4 -165 2 -1 51 -5 111 -8 l107 -6 0 34
0 34 -57 3 c-57 3 -58 3 -58 33 0 29 2 30 53 33 50 3 52 4 52 31 0 31 -18 41
-72 41 -24 0 -28 4 -28 30 0 30 1 30 55 30 50 0 55 2 61 25 4 14 4 29 0 32 -3
4 -52 8 -109 11 l-104 4 -7 -162z"/>
<path d="M3387 7513 c-25 -4 -28 -8 -23 -31 3 -15 10 -89 17 -164 7 -87 16
-138 23 -138 73 1 184 23 221 45 82 47 107 152 55 225 -36 51 -87 70 -182 69
-46 -1 -96 -4 -111 -6z m194 -92 c61 -62 14 -161 -76 -161 -20 0 -25 5 -26 28
0 15 -3 57 -8 95 l-7 67 44 0 c35 0 49 -6 73 -29z"/>
<path d="M4510 7334 c-18 -80 -33 -153 -34 -162 -1 -20 112 -50 192 -51 43 -1
57 3 77 24 32 31 34 86 4 116 l-21 21 21 22 c28 30 28 89 0 115 -16 15 -170
61 -203 61 -1 0 -17 -66 -36 -146z m164 33 c9 -14 7 -21 -7 -32 -10 -7 -27
-11 -37 -8 -22 6 -23 8 -14 41 8 27 41 27 58 -1z m-1 -127 c5 -5 6 -17 2 -29
-6 -21 -44 -28 -79 -15 -19 7 -19 14 -6 48 9 23 12 24 42 14 18 -6 37 -14 41
-18z"/>
<path d="M2673 7343 c-40 -13 -73 -29 -73 -35 0 -9 90 -300 94 -305 5 -6 161
49 191 67 111 69 106 229 -9 281 -55 25 -116 23 -203 -8z m136 -54 c34 -12 61
-53 61 -93 0 -32 -47 -85 -79 -88 -21 -3 -26 5 -52 82 -16 46 -26 87 -21 91 6
6 26 13 53 18 3 0 20 -4 38 -10z"/>
<path d="M5000 7333 c-6 -15 -24 -63 -40 -105 -47 -122 -36 -176 44 -223 89
-52 198 -40 232 27 13 26 84 205 84 213 0 2 -20 10 -45 18 l-45 16 -13 -32
c-8 -18 -26 -65 -41 -105 -34 -88 -57 -105 -111 -79 -44 21 -45 46 -6 147 46
120 45 119 19 129 -64 24 -68 24 -78 -6z"/>
<path d="M2258 7166 l-48 -20 0 -70 c0 -39 3 -121 7 -183 l6 -111 43 21 c39
18 44 25 44 54 0 30 5 35 61 64 l61 30 24 -22 24 -23 45 22 c25 12 45 25 44
29 0 5 -26 29 -57 55 -31 25 -91 75 -132 110 l-75 64 -47 -20z m90 -187 c-18
-9 -36 -15 -40 -12 -5 2 -8 27 -8 56 l0 51 40 -39 40 -39 -32 -17z"/>
<path d="M5426 7008 c-42 -78 -73 -144 -69 -148 4 -4 47 -27 94 -52 l85 -45
18 30 c9 16 15 31 14 32 -2 1 -19 10 -38 20 -56 28 -61 34 -48 59 6 11 12 22
13 24 2 2 25 -8 53 -22 l49 -25 12 25 c16 36 15 37 -33 63 -40 22 -43 27 -33
48 13 28 17 28 67 3 50 -26 54 -25 69 7 10 21 9 28 -1 35 -22 14 -166 88 -171
88 -3 0 -40 -64 -81 -142z"/>
<path d="M3545 7109 c-425 -43 -856 -176 -1228 -379 -589 -321 -1050 -799
-1351 -1400 -175 -351 -276 -685 -323 -1075 -21 -171 -23 -549 -4 -715 85
-758 407 -1428 940 -1960 508 -506 1145 -818 1881 -922 64 -9 200 -13 415 -13
276 1 339 4 455 22 606 95 1099 310 1575 687 125 99 387 360 487 486 612 770
844 1728 653 2692 -125 629 -457 1231 -931 1687 -417 402 -967 699 -1530 825
-237 54 -370 68 -669 71 -154 2 -320 -1 -370 -6z m215 -197 l0 -128 -37 -13
c-58 -21 -146 -115 -171 -184 -29 -77 -29 -172 -1 -252 l21 -61 -68 -209 c-37
-116 -68 -211 -68 -212 -2 -3 -192 -36 -216 -37 -23 -1 -25 4 -36 74 -7 41
-13 100 -13 131 -1 49 4 63 34 105 131 185 158 245 159 349 1 110 -38 162
-127 172 -31 4 -55 0 -83 -15 -43 -22 -108 -88 -126 -128 -14 -29 -18 -29 -61
-4 -117 69 -232 2 -273 -159 l-18 -69 -30 15 c-46 24 -145 14 -189 -20 -42
-32 -84 -113 -93 -179 l-7 -48 -52 0 c-108 0 -210 -63 -263 -164 -24 -46 -27
-61 -27 -152 l1 -102 -50 -6 c-74 -8 -134 -50 -169 -116 -26 -49 -28 -62 -25
-125 3 -38 12 -84 21 -100 l15 -31 -48 -22 c-64 -29 -107 -74 -138 -141 -48
-104 -16 -260 65 -319 l27 -20 -32 -36 c-62 -71 -86 -132 -86 -221 -1 -71 3
-86 29 -134 29 -53 100 -124 143 -144 22 -10 23 -15 16 -61 -10 -73 -7 -392 6
-559 6 -78 22 -268 35 -422 38 -438 41 -535 17 -626 -31 -118 -98 -240 -181
-333 l-36 -39 33 6 c18 4 60 18 93 31 226 91 368 269 438 548 44 176 52 280
61 813 9 513 12 554 51 671 18 55 80 147 91 134 3 -3 19 -32 38 -65 37 -68
103 -156 149 -199 28 -26 31 -36 31 -86 0 -95 41 -206 101 -275 42 -48 28 -58
-19 -13 -49 47 -72 58 -124 58 -99 0 -166 -98 -126 -185 21 -47 74 -70 161
-70 79 1 94 -8 61 -36 -27 -22 -53 -85 -65 -158 -14 -81 -38 -127 -75 -141
-30 -12 -87 -13 -82 -2 38 72 42 93 46 210 4 119 3 122 -17 122 -20 0 -21 -5
-21 -99 0 -107 -13 -159 -56 -224 -14 -22 -23 -42 -19 -45 4 -4 47 -7 96 -7
55 0 88 -4 86 -10 -27 -72 -537 -1657 -537 -1668 0 -17 51 -39 67 -28 6 3 173
458 373 1011 199 553 364 1007 366 1009 3 3 12 -3 21 -12 16 -16 16 -17 1 -17
-22 0 -33 -70 -25 -157 8 -82 30 -129 68 -142 26 -9 29 -14 29 -53 0 -69 -11
-118 -26 -118 -11 0 -14 -19 -14 -79 0 -71 -3 -83 -26 -111 -15 -17 -65 -56
-111 -86 -48 -33 -94 -72 -109 -93 -48 -74 -58 -251 -14 -251 14 0 21 10 25
38 21 118 40 142 112 142 l42 0 -39 -95 c-51 -122 -51 -143 1 -200 42 -45 153
-122 247 -169 28 -14 52 -31 52 -37 0 -6 -90 -201 -201 -435 l-201 -424 30
-28 30 -28 493 342 492 342 86 -60 c297 -208 707 -471 883 -567 64 -35 80 -40
91 -30 12 11 6 30 -36 119 -161 344 -246 652 -272 983 -5 58 -3 87 4 87 5 0
131 84 278 186 147 103 273 189 279 191 8 3 87 -222 220 -624 l209 -628 33 -3
c48 -5 50 16 14 137 -18 58 -106 351 -196 651 -90 300 -163 547 -161 550 2 3
357 250 789 550 635 441 784 548 780 563 -3 10 0 25 7 33 10 13 -112 202 -775
1195 -843 1260 -811 1217 -850 1157 -8 -13 -94 -192 -191 -398 -98 -206 -179
-377 -181 -379 -3 -3 -39 14 -82 38 -90 49 -264 133 -314 151 l-35 13 -78 260
-78 260 32 58 c56 102 60 224 9 325 -28 56 -112 137 -161 155 l-37 13 0 128 0
128 40 0 c88 0 343 -32 484 -61 598 -122 1134 -405 1574 -833 294 -285 529
-621 691 -987 476 -1078 315 -2325 -419 -3249 -97 -122 -310 -342 -425 -439
-503 -425 -1104 -679 -1759 -742 -175 -17 -577 -6 -741 19 -381 59 -765 188
-1069 358 -771 430 -1325 1142 -1541 1980 -73 281 -100 501 -99 804 2 414 71
776 221 1154 161 407 386 749 703 1067 341 341 717 581 1169 745 266 97 654
175 904 182 l57 2 0 -128z m214 -266 c118 -69 142 -230 48 -329 -87 -92 -240
-89 -319 7 -72 88 -69 197 8 281 71 77 175 93 263 41z m-705 -51 c37 -18 56
-67 55 -133 -2 -62 -59 -187 -120 -262 l-37 -45 6 48 c6 62 -21 94 -60 69 -7
-4 -22 -62 -33 -127 -24 -148 -90 -418 -104 -427 -28 -19 -59 186 -54 366 3
124 1 140 -14 150 -23 14 -50 -2 -59 -35 -21 -76 -3 -384 30 -495 8 -30 6 -33
-35 -63 -25 -17 -48 -31 -53 -31 -12 0 -128 247 -160 341 -24 73 -31 84 -53
87 -43 5 -54 -20 -36 -84 12 -42 13 -52 2 -43 -7 6 -23 9 -36 7 -40 -5 -34
-46 18 -123 73 -109 155 -280 141 -294 -18 -18 -27 -14 -106 57 -143 129 -252
212 -276 212 -26 0 -45 -24 -38 -49 2 -9 23 -29 46 -46 38 -27 40 -30 19 -33
-26 -4 -45 -33 -36 -56 4 -9 25 -21 49 -27 23 -6 60 -23 82 -37 40 -26 135
-111 148 -131 6 -10 -42 -91 -54 -91 -12 0 -81 51 -81 60 0 4 5 10 12 12 15 5
-52 79 -122 133 -64 49 -138 88 -197 104 -37 10 -44 16 -53 49 -41 148 51 305
198 337 49 10 102 -2 102 -24 0 -39 42 -180 75 -249 31 -66 36 -72 54 -62 19
10 19 12 -15 81 -101 205 -95 420 14 494 46 31 113 33 160 5 31 -19 32 -21 32
-93 0 -119 46 -266 113 -360 17 -25 21 -27 34 -14 14 13 11 22 -20 74 -67 109
-82 169 -82 333 0 130 2 150 23 195 50 108 101 133 189 90 53 -26 55 -29 48
-59 -25 -115 -34 -194 -35 -288 0 -117 4 -138 29 -138 14 0 16 18 16 148 1
208 42 348 127 429 54 52 98 64 147 38z m2615 -1536 c611 -917 745 -1124 734
-1134 -22 -21 -2134 -1484 -2151 -1491 -13 -5 -15 2 -11 38 19 174 50 312 92
406 l20 44 133 2 c239 5 306 54 332 242 6 46 17 86 23 88 15 6 1065 734 1083
752 11 10 12 16 2 28 -10 12 -9 16 6 24 15 9 -37 91 -436 691 -250 374 -462
683 -471 686 -30 10 -46 -4 -75 -65 -16 -33 -35 -60 -42 -60 -27 0 -245 89
-292 120 l-49 31 171 359 c94 198 174 360 177 360 4 0 343 -505 754 -1121z
m-1999 1057 c0 0 22 -68 49 -149 26 -82 46 -150 43 -153 -2 -2 -35 2 -73 10
-38 8 -102 18 -141 22 -40 3 -73 9 -73 13 0 3 21 66 47 139 l47 132 51 -6 c27
-4 50 -7 50 -8z m-739 -247 l10 -71 -28 -14 c-15 -8 -31 -14 -36 -14 -5 0 0
38 11 85 12 47 24 85 27 85 4 0 11 -32 16 -71z m684 -75 c215 -33 450 -112
682 -231 165 -85 182 -98 93 -72 -191 54 -432 102 -441 87 -13 -20 6 -35 51
-41 80 -11 274 -57 395 -94 104 -31 518 -180 530 -190 6 -6 -22 -29 -175 -144
-154 -117 -349 -247 -600 -399 -227 -139 -334 -212 -416 -287 -31 -29 -62 -53
-68 -53 -6 0 -17 11 -23 25 -13 29 -54 59 -68 50 -6 -3 -10 -31 -10 -61 l0
-54 -70 0 -70 0 25 -47 c14 -27 25 -53 25 -60 0 -7 -41 -56 -91 -109 -153
-163 -190 -278 -190 -589 0 -274 -31 -377 -135 -458 -55 -42 -166 -81 -262
-92 l-64 -7 6 43 c3 24 10 105 16 179 15 182 14 180 51 180 75 0 129 57 129
135 0 59 -21 95 -73 122 l-32 16 48 12 c74 19 167 106 167 156 0 17 -9 19 -87
20 -49 1 -101 4 -117 8 l-29 6 39 14 c120 42 244 157 244 225 0 37 -121 31
-210 -10 -29 -13 -54 -23 -56 -21 -2 2 12 26 31 52 l34 49 63 1 c52 1 75 7
127 35 61 33 121 95 121 125 0 21 -25 24 -66 10 -39 -14 -114 -20 -114 -9 0 3
14 23 32 43 l32 39 27 -21 c24 -17 38 -19 101 -15 83 5 147 30 201 78 55 48
49 56 -45 64 -46 4 -100 11 -121 14 l-37 7 50 43 50 43 26 -20 c19 -15 41 -21
78 -21 58 0 266 40 266 51 0 7 -75 55 -179 117 -11 6 1 18 46 45 l61 37 33
-33 c71 -70 214 -52 298 37 14 14 22 29 19 32 -4 3 -44 16 -89 28 -75 20 -81
24 -62 34 31 17 39 15 67 -13 61 -61 165 -1 260 148 33 51 62 124 54 133 -3 2
-31 -1 -64 -7 -119 -22 -245 -100 -274 -170 -7 -16 -26 -37 -41 -45 -33 -16
-33 -16 -18 23 14 37 59 236 55 241 -2 2 -27 -8 -55 -23 -119 -60 -239 -227
-229 -317 5 -42 4 -44 -40 -71 l-45 -28 7 38 c3 21 9 75 13 121 l6 83 -39 -23
c-63 -37 -150 -133 -185 -203 -28 -58 -31 -72 -26 -125 5 -58 4 -61 -24 -81
l-29 -20 0 68 c-1 71 -15 123 -45 170 l-18 27 -29 -35 c-57 -67 -101 -167
-106 -245 -4 -71 14 -134 38 -134 6 0 3 -11 -6 -25 -22 -34 -31 -31 -38 11 -4
19 -32 85 -63 145 -51 100 -73 124 -73 81 0 -9 -16 -80 -35 -156 -47 -186 -45
-275 7 -291 24 -8 23 -13 -9 -59 l-26 -40 -21 65 c-29 90 -68 152 -110 174
-19 11 -39 16 -43 11 -4 -4 -8 -88 -8 -187 0 -98 -1 -179 -2 -179 -1 0 -28 15
-60 34 -32 19 -75 57 -98 85 -25 33 -42 46 -46 39 -28 -44 -219 257 -219 344
0 19 -4 38 -9 44 -21 21 -33 235 -19 319 12 73 29 140 38 157 6 10 10 26 10
36 0 16 37 102 60 142 5 8 24 41 41 73 38 69 134 183 215 256 278 249 658 349
1084 285z m-1705 -234 c62 -21 128 -61 185 -111 38 -33 29 -30 -39 13 -25 15
-55 28 -67 28 -27 0 -48 -24 -40 -46 5 -13 2 -15 -17 -11 -133 34 -161 30
-155 -22 2 -21 10 -28 44 -36 41 -10 47 -17 37 -42 -9 -24 2 -46 27 -53 113
-32 148 -47 224 -96 47 -31 86 -60 86 -66 0 -5 -4 -18 -10 -28 -9 -17 -14 -16
-85 13 -59 25 -75 35 -72 49 9 33 -211 98 -335 98 -59 0 -59 0 -75 38 -10 21
-17 65 -17 103 -1 82 26 128 98 164 62 31 131 33 211 5z m3129 -275 c17 -26
15 -28 -20 -19 -15 4 -20 11 -17 25 7 26 17 24 37 -6z m0 -68 l30 -13 -90 -78
c-188 -165 -381 -300 -714 -501 -356 -214 -389 -250 -390 -413 0 -86 -10 -122
-35 -122 -19 0 -40 41 -59 117 -47 180 -11 223 394 468 295 178 624 405 760
524 38 33 60 37 104 18z m-3203 -28 c49 -11 89 -23 89 -26 0 -2 -24 -1 -53 2
-58 7 -82 -6 -75 -42 3 -15 -10 -22 -72 -38 -67 -18 -75 -23 -78 -46 -5 -45
18 -54 93 -35 35 9 77 16 92 16 l28 -1 -32 -14 c-24 -10 -33 -20 -33 -38 0
-43 21 -50 86 -31 64 18 108 13 197 -25 43 -19 47 -23 47 -55 0 -19 -5 -38
-11 -41 -5 -4 -47 -1 -92 5 -71 11 -91 10 -147 -4 -73 -19 -135 -52 -191 -103
-40 -36 -48 -60 -27 -81 20 -20 38 -14 92 27 74 56 83 59 52 18 -58 -75 -5
-119 63 -53 43 42 112 71 194 81 l57 7 0 -44 0 -45 -72 -32 c-181 -79 -288
-167 -339 -275 -26 -56 -30 -73 -27 -137 3 -73 3 -74 32 -77 37 -5 46 10 46
79 0 64 32 138 80 184 l31 30 -25 -55 c-50 -109 -60 -177 -59 -400 0 -148 8
-277 27 -465 48 -468 46 -682 -10 -840 -31 -89 -33 -98 -13 -103 26 -5 67 102
85 220 21 135 14 385 -20 723 -53 533 -44 715 44 871 17 31 26 56 20 59 -6 3
-10 10 -10 15 0 10 192 110 211 110 8 0 -11 -21 -41 -47 -168 -144 -218 -248
-223 -465 -2 -105 7 -138 37 -138 33 1 39 19 42 121 6 184 39 268 147 371 74
72 117 84 48 14 -22 -22 -52 -66 -66 -98 -51 -113 -56 -164 -65 -708 -4 -278
-13 -543 -19 -590 -40 -290 -108 -464 -232 -595 -56 -59 -185 -152 -196 -141
-2 1 17 37 41 79 24 43 54 110 67 150 22 65 24 88 23 232 -1 88 -16 322 -33
520 -56 634 -58 874 -8 1006 44 116 115 209 194 256 27 15 43 32 43 44 0 26
-16 24 -72 -12 -69 -45 -132 -119 -175 -208 -20 -42 -38 -78 -39 -80 -6 -8
-77 44 -108 81 -158 184 0 445 315 522 36 9 77 16 91 16 54 0 88 12 88 32 0
17 -5 18 -67 12 -107 -11 -208 -40 -294 -86 -77 -41 -80 -42 -107 -26 -15 9
-39 40 -54 68 -68 128 -5 283 134 331 70 24 141 24 249 -2z m3997 -1148 c-381
-271 -1005 -695 -1010 -687 -18 26 -7 51 29 71 56 30 86 80 79 132 -5 37 -1
48 41 110 41 61 49 68 75 65 36 -4 87 27 112 68 27 47 17 91 -64 294 -90 227
-142 384 -185 559 l-35 140 40 35 c60 51 84 103 84 187 l1 71 54 47 54 47 374
-561 374 -561 -23 -17z m-963 593 c41 -168 79 -280 175 -529 101 -261 101
-256 57 -300 -39 -39 -51 -39 -107 5 -55 42 -75 50 -129 50 -55 0 -59 4 -35
38 17 25 13 52 -9 52 -14 0 -47 -60 -47 -85 0 -29 31 -45 86 -45 45 0 59 -5
85 -28 l31 -28 -20 -41 c-49 -95 -103 -133 -191 -133 -67 0 -82 7 -75 35 4 15
0 24 -12 29 -20 8 -15 14 -49 -62 -24 -53 -26 -65 -14 -73 21 -13 25 -11 37
15 10 22 14 23 85 18 44 -3 89 0 108 7 25 9 34 8 41 -1 14 -23 9 -39 -21 -69
-32 -32 -51 -37 -51 -14 0 8 -9 15 -19 15 -19 0 -20 -7 -18 -172 3 -237 -16
-288 -121 -330 -49 -19 -74 -22 -182 -22 -103 1 -140 6 -208 26 -78 24 -83 24
-92 8 -10 -19 3 -27 88 -51 23 -7 42 -16 42 -20 0 -4 -9 -29 -21 -56 -34 -80
-68 -240 -81 -381 -20 -229 14 -517 92 -787 33 -115 125 -355 167 -438 13 -27
22 -51 19 -54 -15 -15 -485 285 -953 609 -430 298 -554 381 -676 452 -119 69
-206 106 -247 106 -16 0 -30 3 -30 7 0 4 12 37 26 74 l26 66 68 10 c38 6 83
18 101 27 31 16 35 15 78 -6 53 -27 56 -49 11 -85 -26 -21 -46 -75 -35 -93 9
-15 41 1 42 22 3 34 15 39 104 42 93 3 138 20 166 63 14 21 19 56 23 157 3 82
9 131 16 133 19 6 139 -119 164 -172 32 -66 33 -143 3 -205 -22 -42 -19 -59 9
-60 14 0 47 78 54 128 6 47 9 51 38 58 45 9 91 40 104 69 14 31 15 114 2 172
-32 139 -30 246 6 300 l15 24 40 -23 c58 -32 117 -85 135 -120 18 -35 21 -107
5 -137 -9 -17 -8 -22 9 -31 17 -9 22 -7 32 17 20 51 13 123 -22 228 -31 93
-33 109 -34 235 -1 129 -3 139 -33 213 -34 82 -41 139 -21 182 15 33 23 32 38
-5 33 -81 108 -150 160 -150 30 0 100 45 100 65 0 24 -21 28 -61 9 -39 -17
-40 -17 -62 5 -20 20 -22 31 -22 144 0 69 6 144 13 173 12 45 20 56 68 89 66
46 124 108 124 135 0 10 -18 38 -41 60 -35 34 -40 45 -34 68 3 15 12 32 18 38
7 6 62 20 124 32 61 11 138 31 170 45 32 13 132 42 223 65 210 51 280 77 280
103 0 24 -2 24 -91 -7 -66 -23 -332 -94 -351 -94 -11 0 -10 28 2 71 10 35 12
37 66 43 69 8 169 41 207 68 15 11 38 41 50 67 24 50 64 72 121 68 29 -2 29
-4 61 -133z m-1327 -579 c42 -18 112 -64 112 -75 0 -3 -11 -13 -24 -20 -22
-11 -28 -10 -56 14 -63 52 -145 25 -191 -65 -39 -78 -50 -149 -53 -366 -3
-151 -8 -229 -21 -283 -60 -262 -225 -394 -525 -417 l-81 -6 3 44 3 43 98 13
c54 6 119 19 145 27 207 70 292 222 280 501 -13 279 59 536 163 588 43 21 99
21 147 2z m-948 -120 c0 -8 -2 -15 -4 -15 -2 0 -6 7 -10 15 -3 8 -1 15 4 15 6
0 10 -7 10 -15z m149 -258 c19 -19 13 -25 -29 -29 -45 -4 -45 -3 -26 43 7 19
17 43 21 54 7 17 9 14 15 -18 4 -21 12 -43 19 -50z m-340 58 c43 -22 100 -92
94 -115 -9 -32 -29 -42 -95 -43 -111 -3 -167 43 -138 113 24 58 80 76 139 45z
m345 -187 c-7 -80 -12 -108 -22 -108 -4 0 -27 17 -52 38 l-44 39 12 41 c13 42
20 46 89 51 22 1 22 -2 17 -61z m117 23 c56 -57 25 -150 -51 -154 -35 -2 -35
-2 -33 38 8 119 14 145 34 145 12 0 34 -13 50 -29z m-135 -211 c-3 -14 -8 -60
-11 -102 -5 -57 -10 -78 -21 -78 -37 0 -62 104 -50 203 l7 55 40 -26 c33 -21
39 -30 35 -52z m275 -1391 c41 -18 145 -55 231 -83 l158 -52 -401 -278 c-220
-153 -401 -277 -403 -275 -3 4 335 719 340 719 1 0 35 -14 75 -31z"/>
<path d="M4848 4430 c-100 -37 -266 -118 -290 -142 -22 -22 -23 -47 -4 -74 13
-17 25 -19 105 -16 119 5 192 -11 237 -50 19 -17 36 -29 38 -27 10 11 26 117
26 169 l0 58 50 17 c51 17 55 21 42 43 -7 10 -18 9 -54 -2 l-46 -14 -7 34 c-3
19 -9 34 -13 34 -4 -1 -42 -14 -84 -30z m72 -147 c0 -80 -7 -88 -56 -67 -23
10 -82 19 -142 23 l-103 6 148 46 c81 26 149 47 151 48 1 0 2 -25 2 -56z"/>
<path d="M5848 6933 c-8 -10 -52 -69 -98 -132 l-83 -114 24 -19 c55 -43 54
-44 116 43 l58 81 7 -38 c3 -22 9 -80 13 -130 4 -50 10 -96 14 -101 7 -11 67
-53 74 -53 3 0 49 59 101 131 l96 131 -28 21 c-15 11 -32 25 -39 29 -8 6 -30
-17 -69 -71 -32 -44 -59 -79 -61 -77 -1 1 -9 60 -17 131 -14 127 -14 130 -47
157 -39 33 -41 33 -61 11z"/>
<path d="M1815 6909 c-11 -6 -50 -31 -87 -56 l-67 -45 92 -134 c50 -74 96
-134 102 -134 19 0 149 105 172 139 17 25 23 48 23 88 0 102 -52 153 -156 153
-33 0 -68 -5 -79 -11z m91 -74 c40 -16 65 -64 57 -107 -3 -14 -18 -39 -34 -54
-34 -33 -31 -35 -103 69 l-48 67 44 20 c52 24 42 23 84 5z"/>
<path d="M1468 6648 l-37 -33 104 -120 c58 -66 108 -121 113 -123 4 -1 23 11
42 27 l34 28 -71 84 c-40 46 -89 103 -110 127 l-38 42 -37 -32z"/>
<path d="M6240 6511 c-19 -10 -46 -33 -58 -52 -20 -29 -23 -44 -20 -99 4 -83
45 -146 121 -191 45 -26 60 -29 110 -26 159 10 211 187 90 311 -73 74 -168 97
-243 57z m145 -87 c90 -42 93 -170 5 -189 -63 -14 -140 51 -140 118 0 34 49
87 80 87 12 0 37 -7 55 -16z"/>
<path d="M1241 6440 c-75 -55 -98 -118 -66 -180 30 -58 73 -64 152 -19 59 34
83 33 83 -4 0 -28 -27 -55 -66 -66 -25 -7 -29 -12 -26 -37 2 -16 7 -33 12 -38
14 -14 66 13 110 56 49 50 68 104 51 147 -29 69 -86 82 -163 37 -51 -30 -73
-33 -82 -10 -6 15 36 66 62 75 16 5 5 69 -13 69 -6 0 -31 -14 -54 -30z"/>
<path d="M975 6100 c-24 -10 -59 -47 -110 -118 -45 -63 -55 -48 109 -167 l119
-87 19 23 c41 53 41 55 -8 91 l-46 33 75 5 c76 5 76 5 106 47 17 24 31 45 31
47 0 2 -38 1 -83 -1 l-84 -6 5 33 c11 73 -64 129 -133 100z m45 -106 c10 -11
11 -23 4 -41 -12 -36 -24 -37 -59 -9 -30 24 -30 24 -11 45 23 25 49 27 66 5z"/>
<path d="M6657 6090 c-38 -30 -41 -52 -16 -130 17 -51 20 -73 12 -81 -28 -28
-83 28 -83 85 0 23 -3 24 -37 19 -21 -3 -40 -7 -42 -9 -8 -7 19 -81 42 -115
28 -42 82 -79 116 -79 38 0 89 35 97 67 4 15 1 47 -6 72 -7 25 -15 59 -18 74
-4 26 -2 28 19 25 16 -2 31 -16 44 -43 18 -36 24 -40 53 -37 20 2 32 9 32 18
0 16 -32 80 -52 104 -43 52 -116 65 -161 30z"/>
<path d="M671 5674 c-29 -52 -52 -96 -50 -98 35 -25 283 -155 289 -151 9 5
100 168 100 179 0 3 -13 12 -29 20 l-28 15 -27 -49 c-30 -55 -33 -57 -62 -35
-19 14 -19 15 4 54 12 22 22 44 22 49 0 7 -42 32 -55 32 -1 0 -15 -20 -29 -45
-26 -44 -27 -45 -51 -29 l-24 16 25 50 c27 53 27 53 -16 78 -13 7 -26 -10 -69
-86z"/>
<path d="M6853 5443 c-38 -5 -37 -2 -17 -53 14 -35 20 -40 49 -40 31 0 36 -4
60 -57 25 -56 25 -58 8 -90 -17 -31 -17 -34 3 -74 l20 -42 121 132 121 132
-21 50 -21 49 -145 -2 c-81 0 -161 -3 -178 -5z m212 -123 l-39 -40 -18 32 c-9
18 -17 36 -18 41 0 4 26 7 57 7 l57 0 -39 -40z"/>
<path d="M522 5379 l-21 -49 74 -79 75 -78 -38 -7 c-20 -3 -69 -6 -108 -6
l-70 0 -22 -51 -21 -52 57 6 c31 4 115 9 185 13 l128 7 15 35 c14 34 13 37 -9
61 -13 14 -69 76 -124 137 l-101 112 -20 -49z"/>
<path d="M7165 5013 c-77 -25 -142 -47 -144 -49 -6 -5 21 -94 28 -94 10 0 303
99 308 104 2 2 -1 22 -8 45 -8 27 -18 41 -28 40 -9 -1 -79 -21 -156 -46z"/>
<path d="M337 4873 c-3 -16 -9 -36 -12 -45 -7 -18 12 -25 223 -82 l93 -25 8
22 c28 75 36 68 -137 115 -86 24 -160 43 -163 42 -4 0 -9 -12 -12 -27z"/>
<path d="M7250 4746 l-145 -32 2 -43 c1 -24 4 -46 7 -49 3 -2 29 0 58 6 29 5
54 9 56 7 1 -1 -18 -27 -43 -56 -45 -53 -46 -55 -40 -104 3 -27 10 -53 14 -58
4 -4 29 22 55 59 l49 65 26 -24 c36 -34 64 -40 106 -23 25 11 40 26 51 51 13
33 13 45 -1 118 -22 109 -24 117 -38 116 -7 0 -77 -15 -157 -33z m130 -111 c0
-45 -32 -66 -61 -39 -10 9 -19 27 -19 40 0 22 7 25 68 33 7 0 12 -12 12 -34z"/>
<path d="M270 4598 c0 -7 -3 -29 -6 -49 l-6 -36 96 -13 c53 -7 96 -15 96 -19
-1 -3 -50 -37 -110 -75 -108 -67 -109 -69 -116 -112 -3 -25 -4 -47 -1 -50 5
-5 320 -55 323 -51 1 1 4 23 8 48 l7 46 -76 12 c-42 6 -85 11 -95 11 -11 0
-20 4 -20 8 0 5 49 40 109 78 108 68 109 69 115 113 3 24 4 47 1 49 -4 4 -293
51 -317 52 -5 0 -8 -6 -8 -12z"/>
<path d="M7331 4294 c-74 -7 -139 -14 -145 -16 -8 -2 -9 -33 -2 -105 l8 -103
35 0 36 0 -6 60 -7 60 29 0 c32 0 41 -14 41 -66 0 -32 2 -34 36 -34 l37 0 -7
55 c-6 50 -4 55 14 57 11 0 26 1 33 2 8 1 14 -19 17 -54 5 -54 6 -55 39 -58
l34 -3 -6 83 c-4 46 -7 95 -7 111 0 31 14 30 -179 11z"/>
<path d="M200 3970 l0 -50 113 0 c133 0 151 -8 151 -65 0 -57 -19 -65 -146
-65 l-108 0 0 -50 0 -50 118 0 c131 0 167 13 197 69 23 46 20 145 -7 192 -32
57 -66 69 -202 69 l-116 0 0 -50z"/>
<path d="M7206 3890 c-9 -22 -16 -66 -16 -98 0 -75 25 -117 78 -133 62 -18 91
1 123 81 27 68 50 85 69 51 8 -16 7 -29 -4 -56 -15 -35 -15 -35 16 -51 43 -22
52 -8 56 84 4 75 3 79 -26 110 -25 27 -37 32 -74 32 -54 0 -72 -17 -93 -87
-18 -61 -38 -81 -60 -63 -19 16 -19 63 1 101 8 17 14 32 12 33 -23 18 -54 36
-59 36 -4 0 -14 -18 -23 -40z"/>
<path d="M7351 3163 c-6 -31 -10 -57 -8 -58 1 -2 11 -5 23 -9 19 -6 22 -1 33
51 9 45 8 58 -1 65 -26 16 -36 6 -47 -49z"/>
<path d="M320 3190 c0 -5 5 -32 11 -60 9 -43 14 -50 35 -50 27 0 28 1 13 70
-9 43 -14 50 -35 50 -13 0 -24 -4 -24 -10z"/>
<path d="M600 2521 c-80 -35 -147 -66 -149 -68 -8 -6 32 -83 43 -83 6 0 31 9
55 20 24 11 47 20 52 20 6 0 18 -20 29 -45 19 -44 19 -44 50 -33 34 11 34 15
6 80 l-16 36 29 10 c28 10 30 9 51 -40 20 -46 23 -49 48 -43 15 3 30 9 33 13
7 7 -65 181 -79 193 -4 3 -72 -24 -152 -60z"/>
<path d="M6919 2458 l-23 -48 25 -28 c14 -15 65 -72 114 -127 48 -55 92 -104
96 -109 5 -5 17 12 29 38 20 47 20 48 1 72 -19 24 -19 25 6 84 25 56 28 60 60
60 31 0 36 4 54 46 11 26 18 48 17 49 -2 2 -83 5 -180 7 l-177 3 -22 -47z
m172 -48 l40 0 -17 -32 c-9 -18 -18 -35 -20 -37 -6 -6 -74 61 -74 72 0 5 7 6
16 3 9 -3 33 -6 55 -6z"/>
<path d="M736 2169 c-76 -10 -141 -20 -143 -23 -3 -2 6 -23 19 -46 21 -37 26
-40 54 -35 33 6 31 8 82 -76 l22 -36 -20 -26 -21 -26 28 -45 28 -45 107 146
107 146 -24 41 c-30 50 -43 52 -239 25z m135 -86 c-6 -10 -21 -31 -34 -47
l-23 -29 -22 34 c-11 18 -19 35 -18 37 3 2 73 17 99 21 4 1 3 -7 -2 -16z"/>
<path d="M6761 2156 c-12 -18 -21 -37 -21 -42 0 -8 258 -163 277 -167 4 -1 18
17 30 39 l22 40 -139 82 c-76 45 -141 82 -144 82 -2 0 -14 -15 -25 -34z"/>
<path d="M6638 1939 c-10 -5 -45 -45 -78 -89 l-60 -78 124 -91 c68 -50 130
-93 138 -96 7 -3 23 10 37 32 l24 37 -25 20 c-13 12 -35 29 -48 38 -24 17 -23
17 55 18 l80 0 25 37 c14 21 28 43 33 50 5 8 -2 11 -25 8 -18 -2 -56 -6 -85
-9 l-51 -5 1 45 c2 39 -2 49 -26 70 -30 26 -87 32 -119 13z m56 -95 c19 -18
19 -17 4 -49 -14 -31 -21 -31 -58 -3 l-30 22 22 23 c25 27 41 29 62 7z"/>
<path d="M1001 1828 c-49 -34 -72 -69 -78 -122 -7 -61 18 -127 69 -178 l39
-39 40 32 41 32 -29 12 c-41 18 -64 48 -70 94 -5 35 -2 44 26 72 28 27 37 31
68 26 45 -8 79 -39 95 -89 l13 -38 35 29 35 29 -25 48 c-35 68 -93 107 -167
112 -48 3 -64 0 -92 -20z"/>
<path d="M6350 1603 l-71 -78 35 -30 c19 -16 75 -67 124 -113 l90 -82 72 80
c71 78 72 81 55 100 -26 28 -38 25 -78 -19 -34 -37 -35 -38 -57 -21 l-24 18
36 42 35 43 -26 23 -26 23 -35 -40 -35 -39 -24 21 -24 20 42 43 41 42 -23 22
c-13 12 -26 22 -29 22 -4 0 -38 -35 -78 -77z"/>
<path d="M1272 1517 c-87 -89 -92 -97 -92 -136 0 -50 11 -74 54 -119 41 -45
77 -62 126 -62 56 0 83 17 168 102 l72 74 -35 34 -35 34 -73 -71 c-94 -92
-111 -101 -146 -75 -14 10 -30 31 -36 46 -8 25 -3 33 75 111 l85 85 -36 35
-35 35 -92 -93z"/>
<path d="M6148 1396 l-37 -32 95 -105 c150 -163 128 -149 169 -109 l34 33 -41
46 c-23 25 -74 80 -112 122 l-71 77 -37 -32z"/>
<path d="M1593 1162 l-102 -127 32 -28 c18 -15 56 -46 84 -69 l53 -40 20 23
c10 13 19 27 20 30 0 3 -20 20 -45 39 l-44 33 52 66 c28 36 65 83 82 104 l30
39 -35 29 c-19 15 -37 29 -40 29 -3 0 -51 -57 -107 -128z"/>
<path d="M5977 1243 c-21 -15 -37 -30 -37 -35 0 -5 24 -41 54 -81 30 -39 53
-73 52 -75 -2 -1 -56 9 -120 24 -125 27 -146 27 -188 -9 l-26 -22 85 -115 c46
-63 91 -123 98 -134 13 -17 15 -17 49 9 20 15 36 31 36 35 0 4 -24 41 -54 81
-30 41 -53 75 -51 77 1 2 53 -9 115 -23 139 -31 147 -31 187 3 l32 27 -98 132
-98 132 -36 -26z"/>
<path d="M1903 1084 c-18 -28 -14 -34 37 -64 11 -7 7 -18 -24 -65 -20 -31 -53
-81 -71 -110 l-34 -53 41 -27 c23 -15 43 -23 47 -17 3 5 35 55 71 110 l64 101
34 -21 35 -21 18 24 c10 13 19 26 19 29 0 6 -204 140 -213 140 -4 0 -14 -12
-24 -26z"/>
<path d="M5526 940 c-49 -28 -91 -52 -93 -54 -6 -6 151 -285 160 -286 4 0 48
23 97 51 l89 51 -15 29 c-8 16 -18 29 -22 29 -4 0 -25 -11 -47 -25 -50 -30
-49 -30 -69 -1 -16 25 -15 25 34 52 l49 27 -17 26 c-9 14 -17 27 -18 29 -1 2
-23 -7 -49 -20 -46 -22 -47 -23 -61 -4 -19 27 -18 31 14 45 15 7 37 19 50 27
21 14 21 16 7 44 -9 17 -17 30 -18 30 -1 0 -42 -23 -91 -50z"/>
<path d="M2195 769 c-66 -56 -126 -107 -134 -114 -12 -12 -7 -17 32 -36 44
-21 47 -22 65 -6 25 22 32 22 98 -10 52 -26 55 -30 52 -60 -3 -28 0 -33 39
-52 24 -12 45 -21 47 -21 2 0 7 69 10 153 4 83 9 163 12 177 4 22 -1 29 -41
48 -25 12 -49 22 -53 22 -4 0 -61 -46 -127 -101z m122 -116 c-3 -2 -22 4 -42
15 l-37 19 38 32 39 32 3 -47 c2 -25 1 -48 -1 -51z"/>
<path d="M5144 766 c-45 -20 -105 -76 -120 -113 -33 -78 1 -170 76 -210 143
-76 340 60 300 207 -6 22 -14 40 -19 40 -14 0 -155 -60 -165 -70 -6 -6 -5 -19
2 -34 11 -25 12 -25 46 -11 20 8 38 15 41 15 12 0 4 -29 -15 -53 -40 -50 -128
-47 -161 6 -51 84 7 167 106 154 36 -5 47 -2 76 22 l33 28 -31 17 c-39 19
-126 21 -169 2z"/>
<path d="M2625 718 c-21 -56 -95 -284 -95 -293 0 -14 157 -65 201 -65 49 1
112 32 140 71 49 69 22 181 -56 229 -26 16 -166 70 -182 70 -2 0 -6 -6 -8 -12z
m148 -129 c35 -37 35 -78 1 -118 -21 -26 -33 -31 -67 -31 -68 0 -70 6 -42 91
14 41 27 80 30 87 7 20 45 5 78 -29z"/>
<path d="M4805 633 c-35 -9 -37 -18 -16 -101 12 -44 21 -85 21 -91 0 -6 -50
22 -110 62 l-111 74 -44 -10 c-30 -7 -45 -16 -45 -26 0 -9 16 -82 36 -162 l35
-146 45 10 c51 12 51 11 24 122 -10 44 -18 81 -16 82 1 1 52 -31 114 -72 l112
-75 45 11 c25 6 45 14 45 18 0 3 -18 74 -38 156 -40 159 -42 162 -97 148z"/>
<path d="M3269 548 c-1 -2 -11 -76 -23 -165 l-22 -161 28 -6 c16 -3 63 -8 106
-12 68 -5 82 -3 122 18 58 30 90 78 90 135 0 51 -11 76 -53 120 -33 35 -65 48
-142 58 -27 3 -62 8 -77 11 -16 3 -29 4 -29 2z m142 -95 c68 -27 85 -105 34
-153 -26 -24 -99 -39 -109 -22 -9 14 15 192 26 192 4 0 26 -7 49 -17z"/>
<path d="M4308 533 c-45 -5 -44 6 -18 -183 11 -79 20 -145 20 -147 0 -5 54 -3
76 3 l20 5 -18 142 c-21 164 -26 188 -36 185 -4 -1 -24 -3 -44 -5z"/>
<path d="M3710 396 c0 -56 -3 -131 -6 -165 l-7 -61 112 0 111 0 0 35 0 35 -60
0 -60 0 0 30 c0 30 1 30 55 30 l55 0 0 35 0 35 -49 0 c-55 0 -63 6 -54 38 5
19 12 22 59 22 l54 0 0 35 0 35 -105 0 -105 0 0 -104z"/>
</g>
</svg>
